<svg width="16" height="16" viewBox="0 0 16 16" fill="none" xmlns="http://www.w3.org/2000/svg">
<path d="M5.33324 7.33337C5.20139 7.33337 5.0725 7.37247 4.96286 7.44573C4.85323 7.51898 4.76778 7.6231 4.71732 7.74492C4.66687 7.86674 4.65366 8.00078 4.67939 8.1301C4.70511 8.25942 4.7686 8.37821 4.86184 8.47145C4.95507 8.56468 5.07386 8.62817 5.20318 8.6539C5.3325 8.67962 5.46655 8.66642 5.58837 8.61596C5.71018 8.5655 5.8143 8.48005 5.88756 8.37042C5.96081 8.26079 5.99991 8.1319 5.99991 8.00004C5.99991 7.82323 5.92967 7.65366 5.80465 7.52864C5.67962 7.40361 5.51005 7.33337 5.33324 7.33337ZM7.99991 7.33337C7.86806 7.33337 7.73916 7.37247 7.62953 7.44573C7.5199 7.51898 7.43445 7.6231 7.38399 7.74492C7.33353 7.86674 7.32033 8.00078 7.34605 8.1301C7.37178 8.25942 7.43527 8.37821 7.52851 8.47145C7.62174 8.56468 7.74053 8.62817 7.86985 8.6539C7.99917 8.67962 8.13322 8.66642 8.25503 8.61596C8.37685 8.5655 8.48097 8.48005 8.55422 8.37042C8.62748 8.26079 8.66658 8.1319 8.66658 8.00004C8.66658 7.82323 8.59634 7.65366 8.47131 7.52864C8.34629 7.40361 8.17672 7.33337 7.99991 7.33337ZM10.6666 7.33337C10.5347 7.33337 10.4058 7.37247 10.2962 7.44573C10.1866 7.51898 10.1011 7.6231 10.0507 7.74492C10.0002 7.86674 9.987 8.00078 10.0127 8.1301C10.0384 8.25942 10.1019 8.37821 10.1952 8.47145C10.2884 8.56468 10.4072 8.62817 10.5365 8.6539C10.6658 8.67962 10.7999 8.66642 10.9217 8.61596C11.0435 8.5655 11.1476 8.48005 11.2209 8.37042C11.2941 8.26079 11.3332 8.1319 11.3332 8.00004C11.3332 7.82323 11.263 7.65366 11.138 7.52864C11.013 7.40361 10.8434 7.33337 10.6666 7.33337ZM7.99991 1.33337C7.12443 1.33337 6.25752 1.50581 5.44869 1.84084C4.63985 2.17588 3.90492 2.66694 3.28587 3.286C2.03562 4.53624 1.33324 6.23193 1.33324 8.00004C1.32742 9.53946 1.86044 11.0324 2.83991 12.22L1.50658 13.5534C1.41407 13.6471 1.35141 13.7662 1.32649 13.8955C1.30158 14.0248 1.31552 14.1586 1.36658 14.28C1.42195 14.4 1.51171 14.5008 1.62448 14.5696C1.73724 14.6385 1.86791 14.6723 1.99991 14.6667H7.99991C9.76802 14.6667 11.4637 13.9643 12.714 12.7141C13.9642 11.4638 14.6666 9.76815 14.6666 8.00004C14.6666 6.23193 13.9642 4.53624 12.714 3.286C11.4637 2.03575 9.76802 1.33337 7.99991 1.33337ZM7.99991 13.3334H3.60658L4.22658 12.7134C4.28957 12.6516 4.33968 12.578 4.37401 12.4968C4.40834 12.4155 4.42621 12.3282 4.42658 12.24C4.42407 12.0642 4.35219 11.8965 4.22658 11.7734C3.35363 10.9014 2.81003 9.75373 2.68837 8.5259C2.56672 7.29807 2.87454 6.06604 3.5594 5.03972C4.24425 4.0134 5.26377 3.25628 6.44425 2.89736C7.62474 2.53843 8.89315 2.59991 10.0334 3.07132C11.1736 3.54272 12.1151 4.39489 12.6975 5.48264C13.2799 6.57038 13.4672 7.8264 13.2273 9.03671C12.9875 10.247 12.3354 11.3367 11.3823 12.1202C10.4291 12.9037 9.23375 13.3324 7.99991 13.3334Z" fill="#495057"/>
</svg>
