<svg width="16" height="16" viewBox="0 0 16 16" fill="none" xmlns="http://www.w3.org/2000/svg">
<path d="M4.66659 10.6666C4.53473 10.6666 4.40584 10.7057 4.29621 10.779C4.18657 10.8523 4.10112 10.9564 4.05067 11.0782C4.00021 11.2 3.987 11.3341 4.01273 11.4634C4.03845 11.5927 4.10195 11.7115 4.19518 11.8047C4.28842 11.898 4.4072 11.9614 4.53653 11.9872C4.66585 12.0129 4.79989 11.9997 4.92171 11.9492C5.04352 11.8988 5.14764 11.8133 5.2209 11.7037C5.29415 11.5941 5.33325 11.4652 5.33325 11.3333C5.33325 11.1565 5.26301 10.9869 5.13799 10.8619C5.01297 10.7369 4.8434 10.6666 4.66659 10.6666ZM12.7066 7.99998L13.5266 7.17998C13.9011 6.80498 14.1115 6.29665 14.1115 5.76665C14.1115 5.23664 13.9011 4.72831 13.5266 4.35331L11.6399 2.47331C11.2649 2.09878 10.7566 1.88841 10.2266 1.88841C9.69658 1.88841 9.18825 2.09878 8.81325 2.47331L7.99992 3.29331C7.98945 2.76984 7.77412 2.27135 7.40018 1.90489C7.02623 1.53842 6.52349 1.33321 5.99992 1.33331H3.33325C2.80282 1.33331 2.29411 1.54403 1.91904 1.9191C1.54397 2.29417 1.33325 2.80288 1.33325 3.33331V12.6666C1.33325 13.1971 1.54397 13.7058 1.91904 14.0809C2.29411 14.4559 2.80282 14.6666 3.33325 14.6666H12.6666C13.197 14.6666 13.7057 14.4559 14.0808 14.0809C14.4559 13.7058 14.6666 13.1971 14.6666 12.6666V9.99998C14.6667 9.47641 14.4615 8.97367 14.095 8.59972C13.7285 8.22578 13.2301 8.01045 12.7066 7.99998ZM6.66659 12.6666C6.66659 12.8435 6.59635 13.013 6.47132 13.1381C6.3463 13.2631 6.17673 13.3333 5.99992 13.3333H3.33325C3.15644 13.3333 2.98687 13.2631 2.86185 13.1381C2.73682 13.013 2.66659 12.8435 2.66659 12.6666V3.33331C2.66659 3.1565 2.73682 2.98693 2.86185 2.86191C2.98687 2.73688 3.15644 2.66665 3.33325 2.66665H5.99992C6.17673 2.66665 6.3463 2.73688 6.47132 2.86191C6.59635 2.98693 6.66659 3.1565 6.66659 3.33331V12.6666ZM7.99992 5.17331L9.75992 3.41331C9.88483 3.28915 10.0538 3.21945 10.2299 3.21945C10.406 3.21945 10.575 3.28915 10.6999 3.41331L12.5866 5.33331C12.7108 5.45822 12.7804 5.62719 12.7804 5.80331C12.7804 5.97944 12.7108 6.1484 12.5866 6.27331L10.6666 8.19331L7.99992 10.8266V5.17331ZM13.3333 12.6666C13.3333 12.8435 13.263 13.013 13.138 13.1381C13.013 13.2631 12.8434 13.3333 12.6666 13.3333H7.87992C7.94831 13.1357 7.98652 12.929 7.99325 12.72L11.3799 9.33331H12.6666C12.8434 9.33331 13.013 9.40355 13.138 9.52858C13.263 9.6536 13.3333 9.82317 13.3333 9.99998V12.6666Z" fill="#48484D"/>
</svg>
